PathFileType	4	(X/Y/Z)	Kaydara																																																																																																																									
DataRate	CameraRate	NumFrames	NumMarkers	Units	OrigDataRate	OrigDataStartFrame	OrigNumFrames																																																																																																																					
30	30	8	41	mm	30	178	354																																																																																																																					
Frame#	Time	SALE_LFHD			SALE_RFHD			SALE_LBHD			SALE_RBHD			SALE_LFTShould			SALE_RFTShould			SALE_LRRShould			SALE_RRRShould			SALE_T10			SALE_STRN			SALE_TRUN			SALE_LSHO			SALE_LUPA			SALE_LELB			SALE_LFRM			SALE_LWRA			SALE_LWRB			SALE_LFIN			SALE_RSHO			SALE_RUPA			SALE_RELB			SALE_RFRM			SALE_RWRB			SALE_RFIN			SALE_LFWT			SALE_RFWT			SALE_LBWT			SALE_RBWT			SALE_LTHI			SALE_LKNE			SALE_RWRA			SALE_LSHN			SALE_LANK			SALE_LHEE			SALE_LTOE			SALE_RTHI			SALE_RKNE			SALE_RSHN			SALE_RANK			SALE_RHEE			SALE_RTOE		
		X1	Y1	Z1	X2	Y2	Z2	X3	Y3	Z3	X4	Y4	Z4	X5	Y5	Z5	X6	Y6	Z6	X7	Y7	Z7	X8	Y8	Z8	X9	Y9	Z9	X10	Y10	Z10	X11	Y11	Z11	X12	Y12	Z12	X13	Y13	Z13	X14	Y14	Z14	X15	Y15	Z15	X16	Y16	Z16	X17	Y17	Z17	X18	Y18	Z18	X19	Y19	Z19	X20	Y20	Z20	X21	Y21	Z21	X22	Y22	Z22	X23	Y23	Z23	X24	Y24	Z24	X25	Y25	Z25	X26	Y26	Z26	X27	Y27	Z27	X28	Y28	Z28	X29	Y29	Z29	X30	Y30	Z30	X31	Y31	Z31	X32	Y32	Z32	X33	Y33	Z33	X34	Y34	Z34	X35	Y35	Z35	X36	Y36	Z36	X37	Y37	Z37	X38	Y38	Z38	X39	Y39	Z39	X40	Y40	Z40	X41	Y41	Z41
																																																																																																																												
178	5.91	245.22427	1522.03583	-1377.19208	115.43314	1518.7677	-1372.98615	237.02894	1612.76825	-1472.55142	111.73257	1604.66766	-1464.93561	254.93166	1366.08231	-1552.25372	114.60497	1359.53552	-1531.08307	231.55008	1437.43423	-1651.11664	84.27709	1436.71051	-1621.56433	148.11584	1293.25409	-1725.63126	187.05517	1286.58585	-1504.5755	190.91242	1196.7424	-1472.57782	357.33448	1405.0827	-1632.66327	397.10041	1190.86586	-1667.04834	380.76683	1080.18234	-1684.35196	412.31384	978.21037	-1635.36163	359.0276	864.30244	-1528.41095	418.80161	844.22729	-1571.5976	421.76674	816.41052	-1513.51532	-0.69248	1396.51978	-1573.10028	-45.43777	1171.15211	-1643.30902	-66.44517	1068.16772	-1599.03015	-59.51568	953.93631	-1609.1214	-66.01192	817.31354	-1559.50851	-65.8619	779.80759	-1502.1608	309.00341	967.78587	-1551.81122	31.23561	967.15408	-1534.05899	243.62867	1011.74248	-1720.23285	65.07719	1025.01442	-1707.66327	296.74551	640.5024	-1595.86029	285.07666	515.80891	-1449.95377	-12.73826	831.55693	-1509.36142	288.82147	309.66635	-1508.4053	293.91006	152.27923	-1615.35065	257.74954	118.24963	-1692.87903	268.22199	82.6037	-1500.84564	19.30432	715.16403	-1698.47214	54.94755	554.39697	-1606.83319	118.91281	366.56265	-1641.7691	85.36791	117.68839	-1714.64691	101.91099	73.56528	-1597.85736	132.39176	60.77151	-1788.479
179	5.943	247.22153	1520.93811	-1355.84747	117.32296	1517.91931	-1350.94879	238.65282	1611.45264	-1451.38062	113.36619	1603.62762	-1442.99408	255.0421	1364.12613	-1531.68381	115.11752	1358.07663	-1509.60739	231.39769	1436.94595	-1629.99405	84.26706	1436.34781	-1599.13177	147.02843	1293.59482	-1705.15259	187.57477	1284.61609	-1484.24377	191.43736	1194.5977	-1453.01163	357.27131	1404.04663	-1612.845	395.73776	1190.05447	-1650.88562	378.82767	1079.88411	-1669.71771	411.78097	976.68274	-1624.66324	361.46179	859.16435	-1520.05341	419.84459	840.72441	-1565.80811	424.71695	811.00075	-1508.86414	-0.33813	1395.53665	-1550.27863	-45.80393	1171.0952	-1623.25851	-66.20005	1067.44942	-1580.02533	-58.58213	953.05565	-1590.37125	-63.29799	816.34872	-1540.80139	-61.97371	778.97118	-1483.35999	308.77211	967.84592	-1533.77533	30.9866	964.5752	-1517.87994	244.59917	1012.55119	-1702.56653	65.82331	1024.09592	-1690.68787	298.91331	641.89888	-1576.59729	285.13777	519.48296	-1427.59949	-9.45023	831.0701	-1491.39603	287.27163	308.57763	-1457.82867	290.36467	137.39235	-1540.52567	253.02223	93.88659	-1612.20703	265.94099	83.71235	-1418.30353	21.82271	714.67117	-1686.62186	55.99492	552.59472	-1597.3233	120.29346	365.03532	-1635.35461	86.01498	117.96222	-1713.59192	102.26119	73.37211	-1597.50427	132.86744	61.21626	-1788.43323
180	5.977	249.44151	1518.77945	-1334.04358	119.59431	1515.96375	-1328.32397	240.39583	1609.44107	-1429.37256	115.21895	1601.80176	-1420.32089	255.7513	1362.6091	-1510.55222	116.02128	1356.39725	-1487.92435	231.90382	1435.80948	-1608.35068	84.91632	1435.36575	-1576.87103	146.92496	1293.19687	-1684.24988	188.26365	1282.57324	-1463.40866	191.91019	1192.36748	-1432.78137	357.80327	1402.50427	-1592.13638	395.67425	1188.89778	-1633.5379	377.74704	1078.97156	-1652.86011	411.98921	974.47968	-1613.65128	364.30836	851.53587	-1513.98972	421.12602	835.50301	-1562.34238	427.67776	802.82043	-1507.24564	0.44413	1394.27933	-1527.98599	-45.34951	1170.45113	-1602.86057	-65.11644	1066.25465	-1560.4953	-57.1377	951.90575	-1571.51443	-60.8875	815.02876	-1522.74323	-58.81667	777.39479	-1465.31281	309.04827	966.95389	-1514.84833	31.10707	961.37932	-1500.52765	245.69525	1013.03757	-1683.68698	66.77734	1023.0201	-1672.66052	300.51535	641.8409	-1559.19998	286.15316	520.57819	-1409.73587	-6.60662	829.7007	-1473.54828	287.92061	309.77798	-1411.28265	287.99093	128.18925	-1466.39771	249.27557	79.10222	-1531.14365	264.736	83.5354	-1336.41983	24.54783	713.95073	-1673.88885	57.41882	550.59006	-1587.40219	121.80153	363.44391	-1628.97705	86.78993	118.24829	-1712.3584	102.41842	73.3056	-1597.50931	133.38949	61.82368	-1788.36304
181	6.01	251.81063	1515.97595	-1311.94626	122.03928	1513.20511	-1305.67474	242.33488	1606.82465	-1406.98822	117.21964	1599.29169	-1397.50565	257.00409	1360.45807	-1488.67523	117.24455	1354.41879	-1466.27594	233.20717	1433.86765	-1586.30234	86.32025	1433.68546	-1554.83109	147.80568	1291.82358	-1662.76947	189.13645	1280.45685	-1441.88339	192.49395	1190.14404	-1411.49872	359.05075	1400.32806	-1570.48386	396.26816	1187.04124	-1613.47687	378.00545	1077.45567	-1634.04999	412.89494	971.78009	-1601.82098	367.25826	842.658	-1509.67926	423.51219	829.49669	-1561.18179	430.54806	793.98247	-1507.15088	1.67253	1392.68478	-1506.02692	-44.1029	1169.33655	-1582.13867	-63.45371	1064.87961	-1540.46936	-55.3158	950.60555	-1552.40646	-58.8313	813.36075	-1504.92172	-56.38587	775.06355	-1447.87399	310.03046	964.93851	-1494.73251	31.97236	957.58163	-1481.75598	246.8626	1012.70683	-1663.57315	67.88279	1021.50887	-1653.45398	302.61703	640.25749	-1544.07257	288.40551	518.04497	-1396.34369	-4.37113	827.5631	-1455.61279	289.33807	312.68274	-1368.99857	287.04865	124.76633	-1393.80585	247.87472	71.96266	-1451.9104	261.69537	87.46745	-1257.56165	27.41682	713.14056	-1660.37796	58.94087	548.54034	-1577.25998	123.18411	361.93291	-1622.55234	87.55733	118.76681	-1711.13892	102.54567	73.19619	-1597.58286	133.98959	62.79449	-1788.29117
182	6.043	254.2827	1512.71561	-1289.79752	124.57294	1510.05386	-1283.30688	244.67945	1603.59009	-1384.81628	119.55883	1596.11328	-1375.14938	258.79257	1357.38724	-1466.14761	118.76793	1351.72974	-1444.06754	235.47533	1430.63995	-1563.78586	88.54376	1431.04187	-1532.97333	149.88774	1289.09119	-1640.81223	190.19295	1277.62199	-1419.60159	193.06332	1187.33833	-1389.01611	361.14094	1396.8959	-1547.68234	398.03303	1183.83347	-1591.90033	379.23843	1074.81689	-1613.99536	414.55318	968.76694	-1589.43085	369.89231	832.85706	-1506.57974	425.82825	824.24667	-1559.19159	433.25504	783.69698	-1508.93326	3.58717	1390.46295	-1484.45587	-42.27122	1167.43484	-1561.18179	-61.26993	1062.74437	-1520.00977	-53.29847	948.69537	-1533.06549	-57.11839	810.88234	-1486.95923	-54.7349	771.89041	-1430.62744	311.15509	961.4518	-1472.7272	32.95875	953.6116	-1462.36938	248.78271	1010.83374	-1641.67328	69.62439	1019.16946	-1633.41782	305.58477	636.54762	-1529.94049	291.20909	511.66992	-1384.30405	-2.64317	824.48235	-1437.67014	289.96632	316.86253	-1331.59271	287.34503	127.21694	-1329.33899	249.57199	67.30923	-1380.63248	256.30611	103.70385	-1187.55592	30.22871	712.68486	-1646.04752	59.89525	546.66676	-1566.58615	124.17169	360.57076	-1615.69702	88.44762	119.64598	-1709.88937	102.54042	73.09997	-1597.58865	134.98082	64.4475	-1788.06427
183	6.077	256.86289	1509.2186	-1267.68974	127.21457	1506.66977	-1261.29288	247.43759	1599.82178	-1363.01529	122.32471	1592.40723	-1353.3551	261.11006	1352.94174	-1443.11966	120.9654	1348.01117	-1422.1875	239.02617	1426.46637	-1541.18301	91.84402	1427.48459	-1511.34705	153.33977	1285.0354	-1618.58551	191.71741	1273.7101	-1396.88614	193.77485	1183.62946	-1365.74142	364.34517	1391.88553	-1523.93799	400.65506	1179.01855	-1569.60724	381.21784	1070.62546	-1593.23364	416.55552	964.46068	-1576.3176	372.53407	822.60811	-1503.44101	427.54398	818.08807	-1556.97968	435.51868	773.58688	-1510.39169	6.22739	1387.38205	-1463.46588	-39.87566	1164.36348	-1540.21469	-59.03228	1059.60922	-1499.52271	-51.44315	945.80498	-1513.54233	-56.23321	807.58522	-1468.94592	-53.8535	767.78854	-1413.06168	311.9879	957.11533	-1448.43857	34.3302	949.35898	-1442.72293	252.22654	1007.32147	-1618.18069	73.22992	1015.37415	-1611.63849	310.31225	632.10007	-1514.09607	293.76869	504.006	-1368.8295	-1.59826	820.34676	-1419.29672	289.7064	320.02277	-1299.54834	287.56266	131.49465	-1277.91878	253.88386	64.59199	-1324.28818	248.94026	124.8912	-1137.01782	33.07416	712.55264	-1630.14786	60.77982	544.89784	-1554.66187	125.2088	359.43272	-1608.05542	89.55995	121.23616	-1708.59207	102.58676	72.99301	-1597.69485	136.60866	67.47556	-1787.67792
184	6.11	259.7555	1505.6604	-1245.61905	130.05968	1503.1955	-1239.77478	250.74312	1595.90424	-1341.28906	125.59663	1588.65204	-1332.10938	264.31293	1348.08716	-1419.93362	123.85046	1344.07776	-1400.31433	243.88937	1421.59332	-1518.45291	96.17756	1423.77533	-1490.45212	158.08472	1280.39841	-1596.38626	193.89212	1269.33731	-1374.08585	194.92966	1179.36058	-1342.4527	368.77926	1385.91827	-1499.77814	403.88119	1173.05626	-1547.14142	383.44032	1065.38597	-1572.16888	418.67599	959.75639	-1562.46841	375.336	813.34991	-1499.02496	429.58405	812.30171	-1553.3342	437.74406	764.40453	-1510.56183	9.95106	1383.74146	-1442.88956	-36.82451	1160.6105	-1519.58282	-56.41611	1056.0862	-1478.85757	-49.64765	942.6326	-1493.8652	-55.8533	804.15443	-1450.53833	-53.91505	763.65822	-1395.11017	313.33237	952.92587	-1421.86569	35.23365	945.97244	-1421.07635	256.58966	1002.83783	-1593.34244	77.27286	1011.30142	-1589.56146	314.49503	628.06511	-1489.71207	297.24386	497.95055	-1346.53961	-1.34606	815.85175	-1400.52872	292.48287	316.25919	-1275.51804	288.24692	128.0688	-1249.74281	252.90346	59.21879	-1294.10187	249.26294	127.15411	-1109.02359	36.09053	712.38846	-1612.20795	62.14327	543.35163	-1540.896	126.64307	358.47549	-1598.81805	91.06981	123.68391	-1707.02911	102.72559	72.98316	-1597.68143	138.78314	71.45718	-1787.04758
185	6.143	262.81347	1502.1611	-1223.63602	133.24	1499.91104	-1218.70865	254.73654	1592.43149	-1319.49005	129.49159	1585.33218	-1311.18607	268.45409	1343.71841	-1396.59698	127.59852	1340.74356	-1378.82446	250.02796	1416.93832	-1495.93506	101.95292	1420.27573	-1470.10437	164.25978	1275.57533	-1573.94638	196.79165	1265.6675	-1351.1702	196.8576	1176.03378	-1318.79669	374.42684	1380.01831	-1475.58105	407.42569	1167.29897	-1525.23209	385.79807	1060.40329	-1551.38855	420.9053	955.4744	-1547.79327	378.05439	805.71426	-1491.61484	431.18919	807.90985	-1547.20078	439.76074	757.12296	-1507.70325	14.72396	1380.94986	-1423.5141	-32.44228	1157.68425	-1499.79584	-53.20712	1053.59772	-1458.81424	-47.34869	940.28084	-1473.88321	-55.89993	801.2925	-1432.00134	-54.91534	760.71808	-1376.73035	314.46936	948.25447	-1394.08508	36.70637	942.82944	-1397.67303	261.35059	998.28339	-1566.14761	81.71726	1007.14622	-1566.01074	317.3929	624.57916	-1459.69589	296.86567	493.26008	-1320.51544	-1.76623	812.2879	-1381.29501	294.09161	306.16335	-1258.50548	293.05178	116.70844	-1242.30469	260.18738	51.9873	-1289.63257	251.50311	108.81901	-1104.19304	40.20298	711.98013	-1592.10922	64.6881	541.64612	-1524.00726	129.11114	357.14851	-1587.18307	92.73271	126.8055	-1704.6579	102.83551	73.03368	-1597.5145	140.79071	76.82939	-1786.18454
